<svg xmlns="http://www.w3.org/2000/svg" width="1062" height="988" viewBox="0 0 1062 988"><defs><style>.a,.b,.e{fill:none;}.b{stroke:rgba(208,135,112,0.3);stroke-width:30px;}.c,.d{stroke:none;}.d{fill:rgba(208,135,112,0.3);}</style></defs><g transform="translate(-960 -150)"><g class="a" transform="translate(960 688)"><path class="c" d="M225,0,450,171.885,364.058,450H85.942L0,171.885Z"/><path class="d" d="M 225 37.75225830078125 L 34.8409423828125 183.0208740234375 L 108.071533203125 420 L 341.928466796875 420 L 415.1590576171875 183.0208740234375 L 225 37.75225830078125 M 225 3.0517578125e-05 L 450 171.8847351074219 L 364.0576477050781 450 L 85.94235229492188 450 L 0 171.8847351074219 L 225 3.0517578125e-05 Z"/></g><g class="a" transform="translate(1589 372)"><path class="c" d="M216.5,0,433,375H0Z"/><path class="d" d="M 216.5 60.00125122070313 L 51.96072387695313 345 L 381.0392761230469 345 L 216.5 60.00125122070313 M 216.5 0 L 433 375 L 0 375 L 216.5 0 Z"/></g><g class="b" transform="translate(1181 150)"><circle class="c" cx="190.5" cy="190.5" r="190.5"/><circle class="e" cx="190.5" cy="190.5" r="175.5"/></g></g></svg>